# xmcd
#
# Track frame offsets:
#	150
#	5844
#	24271
#	65614
#	108112
#	194504
#
# Disc length: 3007 seconds
#
# Revision: 1
# Processed by: cddbd v1.5.2PL0 Copyright (c) Steve Scherf et al.
# Submitted via: audiograbber 1.83.01
#
DISCID=480bbd06
DTITLE=Grateful Dead - 73-11-30A Boston Music Hall, Boston MA
DYEAR=1900
DGENRE=
TTITLE0=WRS Prelude
TTITLE1=WRS Part One
TTITLE2=Let It Grow
TTITLE3=Dark Star > Jam
TTITLE4=Eyes Of The World
TTITLE5=Sugar Magnolia
EXTD=
EXTT0=
EXTT1=
EXTT2=
EXTT3=
EXTT4=
EXTT5=
PLAYORDER=
